<svg width="512" height="512" viewBox="0 0 512 512" fill="none" xmlns="http://www.w3.org/2000/svg"><path d="M255.959 470.925C340.382 403.65 408.976 303.397 408.976 191.272C408.976 105.529 340.382 38.2544 255.959 38.2544C170.216 38.2544 102.941 106.848 102.941 191.272C102.941 302.078 170.216 403.65 255.959 470.925ZM267.831 507.86C261.235 513.137 252.002 513.136 245.406 509.179C146.472 433.989 66.006 317.907 66.006 189.953C66.006 84.4235 151.749 0 255.959 0C361.488 0 445.912 85.7426 445.912 189.953C445.912 317.907 365.446 433.989 267.831 507.86Z" fill="white"/><path d="M255.959 106.849C303.447 106.849 340.382 143.784 340.382 191.272C340.382 236.122 302.128 275.696 255.959 275.696C208.471 275.696 171.535 237.441 171.535 191.272C171.535 143.784 208.471 106.849 255.959 106.849ZM255.959 142.465C229.577 142.465 207.152 163.571 207.152 191.272C207.152 216.335 228.257 238.76 255.959 238.76C282.341 238.76 304.766 217.654 304.766 191.272C304.766 163.571 282.341 142.465 255.959 142.465Z" fill="white"/></svg>
