<svg width="512" height="512" viewBox="0 0 512 512" fill="none" xmlns="http://www.w3.org/2000/svg">
<g clip-path="url(#clip0_5_9)">
<path d="M114.598 501.66C108.988 501.66 103.418 499.91 98.6635 496.473C94.3396 493.344 91.0312 489.012 89.1497 484.017C87.2682 479.021 86.8966 473.583 88.0813 468.379L121.02 323.285L9.31327 225.323C5.29572 221.818 2.39756 217.209 0.979379 212.069C-0.438805 206.929 -0.314418 201.485 1.33706 196.416C2.97841 191.349 6.07082 186.875 10.2309 183.549C14.3909 180.223 19.4357 178.191 24.7397 177.705L172.54 164.286L230.977 27.5354C235.284 17.4882 245.096 11 256 11C266.903 11 276.715 17.4882 281.024 27.5124L339.459 164.286L487.236 177.703C498.119 178.683 507.291 186.047 510.662 196.415C514.034 206.783 510.916 218.154 502.705 225.322L390.999 323.266L423.938 468.356C426.352 479.024 422.211 490.056 413.36 496.454C404.527 502.852 392.749 503.345 383.449 497.754L256 421.592L128.551 497.797C124.242 500.356 119.441 501.66 114.598 501.66ZM256 388.784C260.844 388.784 265.64 390.084 269.953 392.643L390.234 464.583L359.147 327.637C358.059 322.851 358.285 317.859 359.803 313.191C361.32 308.523 364.072 304.352 367.767 301.12L473.243 208.618L333.697 195.947C328.786 195.507 324.087 193.74 320.104 190.834C316.12 187.929 313.002 183.995 311.083 179.453L256 50.404L200.85 179.472C196.967 188.668 188.326 194.985 178.303 195.903L38.736 208.575L144.209 301.077C151.763 307.692 155.067 317.848 152.829 327.618L121.766 464.559L242.046 392.643C246.355 390.084 251.156 388.784 256 388.784ZM171.411 166.93C171.411 166.93 171.411 166.953 171.388 166.973L171.411 166.93ZM340.546 166.867L340.569 166.91C340.569 166.887 340.569 166.887 340.545 166.867H340.546Z" fill="white"/>
</g>
<defs>
<clipPath id="clip0_5_9">
<rect width="512" height="512" fill="white"/>
</clipPath>
</defs>
</svg>
